# File created by Blade
# Date/Time:  Tue Jan 27 17:01:45 2015
#---------------------------------------------------------
:version 1.10
:name HOM
:units
  mass 1.0
  length 1.000000
  angle deg
:documentation
     Acclaim Skeleton File
:root
   axis xyz
   order TX TY TZ RX RY RZ
   position 0.000000 0.000000 0.000000
   orientation 0 0 0
:bonedata
   begin
      id 1
      name Spine_dum
      direction 0.000000 1.000000 0.000000
      length 7.539951
      axis 0.0 0.0 0.0 xyz
   end
   begin
      id 2
      name LeftUpLeg_dum
      direction 1.000000 0.000000 0.000000
      length 3.345476
      axis 0.0 0.0 0.0 xyz
   end
   begin
      id 3
      name RightUpLeg_dum
      direction -1.000000 0.000000 0.000000
      length 3.345476
      axis 0.0 0.0 0.0 xyz
   end
   begin
      id 4
      name Spine
      direction 0.000000 1.000000 0.000000
      length 0.000000
      axis 0.0 0.0 0.0 xyz
      dof rx ry rz
   end
   begin
      id 5
      name Spine_dum1
      direction 0.000000 1.000000 0.000000
      length 15.093809
      axis 0.0 0.0 0.0 xyz
   end
   begin
      id 6
      name Spine_dum2
      direction 0.000000 1.000000 0.000000
      length 9.738928
      axis 0.0 0.0 0.0 xyz
   end
   begin
      id 7
      name Spine_dum3
      direction 0.000000 1.000000 0.000000
      length 9.738928
      axis 0.0 0.0 0.0 xyz
   end
   begin
      id 8
      name Head
      direction 0.000000 1.000000 0.000000
      length 4.527550
      axis 0.0 0.0 0.0 xyz
      dof rx ry rz
   end
   begin
      id 9
      name LeftShoulder
      direction 1.000000 0.000000 0.000000
      length 7.084015
      axis 0.0 0.0 -90.0 xyz
      dof rx ry rz
   end
   begin
      id 10
      name LeftArm
      direction 1.000000 0.000000 0.000000
      length 10.259319
      axis 0.0 0.0 -90.0 xyz
      dof rx ry rz
   end
   begin
      id 11
      name LeftForeArm
      direction 1.000000 0.000000 0.000000
      length 9.896984
      axis 0.0 0.0 -90.0 xyz
      dof ry rz rx
   end
   begin
      id 12
      name LeftHand
      direction 0.000000 0.000000 0.000000
      length 0.000000
      axis 0.0 0.0 -90.0 xyz
      dof rx ry rz
   end
   begin
      id 13
      name LeftHand_dum1
      direction 0.000000 0.000000 0.000000
      length 0.000000
      axis 0.0 0.0 -90.0 xyz
   end
   begin
      id 14
      name LeftHand_dum2
      direction 1.000000 0.000000 0.000000
      length 3.937000
      axis 0.0 0.0 -90.0 xyz
   end
   begin
      id 15
      name LeftHandThumb1
      direction 0.000000 0.000000 1.000000
      length 3.937000
      axis 0.0 0.0 -90.0 xyz
      dof rx rz ry
   end
   begin
      id 16
      name RightShoulder
      direction -1.000000 0.000000 0.000000
      length 7.084015
      axis 0.0 0.0 90.0 xyz
      dof rx ry rz
   end
   begin
      id 17
      name RightArm
      direction -1.000000 0.000000 0.000000
      length 10.259319
      axis 0.0 0.0 90.0 xyz
      dof rx ry rz
   end
   begin
      id 18
      name RightForeArm
      direction -1.000000 0.000000 0.000000
      length 9.896984
      axis 0.0 0.0 90.0 xyz
      dof ry rz rx
   end
   begin
      id 19
      name RightHand
      direction 0.000000 0.000000 0.000000
      length 0.000000
      axis 0.0 0.0 90.0 xyz
      dof rx ry rz
   end
   begin
      id 20
      name RightHand_dum1
      direction 0.000000 0.000000 0.000000
      length 0.000000
      axis 0.0 0.0 90.0 xyz
   end
   begin
      id 21
      name RightHand_dum2
      direction -1.000000 0.000000 0.000000
      length 3.937000
      axis 0.0 0.0 90.0 xyz
   end
   begin
      id 22
      name RightHandThumb1
      direction 0.000000 0.000000 1.000000
      length 3.937000
      axis 0.0 0.0 90.0 xyz
      dof rx rz ry
   end
   begin
      id 23
      name LeftUpLeg
      direction 0.000000 -1.000000 0.000000
      length 19.114733
      axis 0.0 0.0 0.0 xyz
      dof rx ry rz
   end
   begin
      id 24
      name LeftLeg
      direction 0.000000 -1.000000 0.000000
      length 16.045604
      axis 0.0 0.0 0.0 xyz
      dof rx ry rz
   end
   begin
      id 25
      name LeftFoot
      direction 0.000000 -0.258819 0.965926
      length 5.543155
      axis 15.0 0.0 0.0 xyz
      dof rx ry rz
   end
   begin
      id 26
      name LeftToeBase
      direction 0.000000 0.000000 1.000000
      length 2.952750
      axis 0.0 0.0 0.0 xyz
      dof rx ry rz
   end
   begin
      id 27
      name RightUpLeg
      direction 0.000000 -1.000000 0.000000
      length 19.114733
      axis 0.0 0.0 0.0 xyz
      dof rx ry rz
   end
   begin
      id 28
      name RightLeg
      direction 0.000000 -1.000000 0.000000
      length 16.045604
      axis 0.0 0.0 0.0 xyz
      dof rx ry rz
   end
   begin
      id 29
      name RightFoot
      direction 0.000000 -0.258819 0.965926
      length 5.543155
      axis 15.0 0.0 0.0 xyz
      dof rx ry rz
   end
   begin
      id 30
      name RightToeBase
      direction 0.000000 0.000000 1.000000
      length 2.952750
      axis 0.0 0.0 0.0 xyz
      dof rx ry rz
   end
:hierarchy
   begin
      root Spine_dum LeftUpLeg_dum RightUpLeg_dum
      Spine_dum Spine
      LeftUpLeg_dum LeftUpLeg
      RightUpLeg_dum RightUpLeg
      Spine Spine_dum1 Spine_dum2 Spine_dum3
      Spine_dum1 Head
      Spine_dum2 LeftShoulder
      Spine_dum3 RightShoulder
      LeftShoulder LeftArm
      LeftArm LeftForeArm
      LeftForeArm LeftHand
      LeftHand LeftHand_dum1 LeftHand_dum2
      LeftHand_dum1 LeftHandThumb1
      RightShoulder RightArm
      RightArm RightForeArm
      RightForeArm RightHand
      RightHand RightHand_dum1 RightHand_dum2
      RightHand_dum1 RightHandThumb1
      LeftUpLeg LeftLeg
      LeftLeg LeftFoot
      LeftFoot LeftToeBase
      RightUpLeg RightLeg
      RightLeg RightFoot
      RightFoot RightToeBase
   end

# File created by Blade
# Date/Time:  Tue Jan 27 17:01:38 2015
# Frame Rate: 120.000 fps
#------------------------------------------------------
:FULLY-SPECIFIED
:DEGREES
846
root -0.790067 36.828571 4.860625 4.629980 -18.259693 -2.595955
Spine 0.904376 -3.508325 -1.212845
Head -2.672106 4.052248 3.947387
LeftShoulder 4.196837 -3.360904 -0.174882
LeftArm 7.148931 20.376065 -70.570891
LeftForeArm -75.983886 0.000000 94.194506
LeftHand -3.461437 -0.000000 -23.274667
LeftHandThumb1 -26.253704 0.000000 33.147579
RightShoulder -1.717834 -21.377438 2.926950
RightArm 27.649404 -32.925121 49.377219
RightForeArm -148.077410 -0.000000 34.389940
RightHand -1.292451 -0.000000 -2.382894
RightHandThumb1 -24.326973 -0.000000 -32.862282
LeftUpLeg 0.977468 23.551182 5.969031
LeftLeg 8.289681 -0.000000 -0.000000
LeftFoot -21.277878 9.212735 -23.333717
LeftToeBase 14.876771 -0.000000 -0.000000
RightUpLeg -6.413216 0.478963 -0.820188
RightLeg 9.747315 -0.000000 -0.000000
RightFoot -11.865808 3.108048 11.903100
RightToeBase 10.865353 -0.000000 -0.000000
847
root -0.788129 36.828882 4.860685 4.632708 -18.268278 -2.596710
Spine 0.892765 -3.518503 -1.210424
Head -2.657086 4.062519 3.939512
LeftShoulder 4.201195 -3.358777 -0.181902
LeftArm 7.191682 20.489406 -70.546499
LeftForeArm -75.950898 -0.000000 94.192755
LeftHand -3.504211 0.000000 -23.236175
LeftHandThumb1 -26.253704 0.000000 33.147579
RightShoulder -1.722805 -21.415532 2.931982
RightArm 27.604517 -32.941944 49.388284
RightForeArm -148.034707 0.000000 34.365499
RightHand -1.284696 0.000000 -2.419736
RightHandThumb1 -24.326973 -0.000000 -32.862282
LeftUpLeg 0.979176 23.567836 5.967054
LeftLeg 8.280593 -0.000000 -0.000000
LeftFoot -21.283954 9.204315 -23.343079
LeftToeBase 14.927171 -0.000000 -0.000000
RightUpLeg -6.417806 0.498342 -0.823867
RightLeg 9.748668 -0.000000 -0.000000
RightFoot -11.858329 3.098610 11.907208
RightToeBase 10.852303 -0.000000 -0.000000
848
root -0.785913 36.828975 4.861316 4.632617 -18.279004 -2.597750
Spine 0.889682 -3.535329 -1.207883
Head -2.655542 4.079601 3.936989
LeftShoulder 4.217452 -3.418137 -0.185275
LeftArm 7.153216 20.602196 -70.556944
LeftForeArm -75.870297 0.000000 94.201932
LeftHand -3.610896 -0.000000 -23.218257
LeftHandThumb1 -26.253704 0.000000 33.147579
RightShoulder -1.739047 -21.432190 2.935745
RightArm 27.580762 -32.963608 49.387626
RightForeArm -148.172582 -0.000000 34.300278
RightHand -1.348658 0.000000 -2.507994
RightHandThumb1 -24.326973 -0.000000 -32.862282
LeftUpLeg 0.979736 23.584990 5.961715
LeftLeg 8.290706 -0.000000 -0.000000
LeftFoot -21.195139 9.224777 -23.139890
LeftToeBase 14.644655 -0.000000 -0.000000
RightUpLeg -6.420390 0.501725 -0.825872
RightLeg 9.750020 -0.000000 -0.000000
RightFoot -11.851233 3.118897 11.921647
RightToeBase 10.844961 -0.000000 -0.000000
849
root -0.783160 36.829040 4.861589 4.634922 -18.275389 -2.595165
Spine 0.882281 -3.550389 -1.204948
Head -2.650528 4.064386 3.920673
LeftShoulder 4.216946 -3.382776 -0.191702
LeftArm 7.247049 20.713992 -70.513993
LeftForeArm -75.833457 0.000000 94.186564
LeftHand -3.630341 -0.000000 -23.212400
LeftHandThumb1 -26.253704 0.000000 33.147579
RightShoulder -1.762381 -21.446383 2.937023
RightArm 27.545399 -32.970807 49.415096
RightForeArm -148.216597 -0.000000 34.238244
RightHand -1.299739 -0.000000 -2.525569
RightHandThumb1 -24.326973 -0.000000 -32.862282
LeftUpLeg 0.978593 23.556691 5.951767
LeftLeg 8.282542 -0.000000 -0.000000
LeftFoot -21.199149 9.249696 -23.136839
LeftToeBase 14.645781 -0.000000 -0.000000
RightUpLeg -6.419609 0.497529 -0.832656
RightLeg 9.742407 -0.000000 -0.000000
RightFoot -11.850437 3.097026 11.916663
RightToeBase 10.854546 -0.000000 -0.000000
850
root -0.780676 36.829096 4.861809 4.636321 -18.286812 -2.595115
Spine 0.876797 -3.570072 -1.203180
Head -2.642481 4.095927 3.913011
LeftShoulder 4.206831 -3.378387 -0.199160
LeftArm 7.303876 20.825526 -70.489992
LeftForeArm -75.755171 0.000000 94.182619
LeftHand -3.695289 -0.000000 -23.184858
LeftHandThumb1 -26.253704 0.000000 33.147579
RightShoulder -1.754920 -21.448631 2.926225
RightArm 27.480933 -32.985190 49.461393
RightForeArm -148.154562 -0.000000 34.166662
RightHand -1.226832 -0.000000 -2.585636
RightHandThumb1 -24.326973 -0.000000 -32.862282
LeftUpLeg 0.978549 23.578563 5.946725
LeftLeg 8.281811 -0.000000 -0.000000
LeftFoot -21.201414 9.238807 -23.142858
LeftToeBase 14.649503 -0.000000 -0.000000
RightUpLeg -6.425680 0.501581 -0.836654
RightLeg 9.747290 -0.000000 -0.000000
RightFoot -11.849180 3.098284 11.916979
RightToeBase 10.896604 -0.000000 -0.000000
851
root -0.777904 36.829193 4.862095 4.637570 -18.286856 -2.593978
Spine 0.872611 -3.593627 -1.200536
Head -2.635956 4.102343 3.897932
LeftShoulder 4.221380 -3.412450 -0.205433
LeftArm 7.298170 20.924326 -70.498774
LeftForeArm -75.659691 -0.000000 94.190510
LeftHand -3.745201 -0.000000 -23.218937
LeftHandThumb1 -26.253704 0.000000 33.147579
RightShoulder -1.769654 -21.459093 2.926898
RightArm 27.450308 -33.011999 49.468311
RightForeArm -148.112669 -0.000000 34.101497
RightHand -1.242534 -0.000000 -2.621053
RightHandThumb1 -24.326973 -0.000000 -32.862282
LeftUpLeg 0.976719 23.563507 5.939590
LeftLeg 8.279949 -0.000000 -0.000000
LeftFoot -21.205471 9.248163 -23.140736
LeftToeBase 14.676406 -0.000000 -0.000000
RightUpLeg -6.427226 0.490922 -0.840184
RightLeg 9.742619 -0.000000 -0.000000
RightFoot -11.843578 3.118215 11.924172
RightToeBase 10.844143 -0.000000 -0.000000
852
root -0.775537 36.829772 4.862934 4.638267 -18.287870 -2.591122
Spine 0.861006 -3.621473 -1.198689
Head -2.614101 4.128755 3.875362
LeftShoulder 4.228636 -3.405222 -0.216468
LeftArm 7.324920 21.019888 -70.467848
LeftForeArm -75.609497 -0.000000 94.212803
LeftHand -3.787272 -0.000000 -23.217323
LeftHandThumb1 -26.253704 0.000000 33.147579
RightShoulder -1.776697 -21.466986 2.925607
RightArm 27.407598 -33.034012 49.491656
RightForeArm -148.125438 -0.000000 34.037743
RightHand -1.184941 0.000000 -2.595014
RightHandThumb1 -24.326973 -0.000000 -32.862282
LeftUpLeg 0.978799 23.565014 5.935064
LeftLeg 8.265696 -0.000000 -0.000000
LeftFoot -21.274958 9.229996 -23.322243
LeftToeBase 14.866955 -0.000000 -0.000000
RightUpLeg -6.426925 0.484397 -0.846407
RightLeg 9.739910 -0.000000 -0.000000
RightFoot -11.842862 3.117865 11.927441
RightToeBase 10.889017 -0.000000 -0.000000
853
root -0.772855 36.829904 4.862418 4.640385 -18.297095 -2.589360
Spine 0.857759 -3.644877 -1.196078
Head -2.611209 4.148130 3.859626
LeftShoulder 4.227329 -3.401674 -0.226394
LeftArm 7.360865 21.102760 -70.441965
LeftForeArm -75.586652 -0.000000 94.239242
LeftHand -3.853249 -0.000000 -23.261087
LeftHandThumb1 -26.253704 0.000000 33.147579
RightShoulder -1.762690 -21.465292 2.902758
RightArm 27.349632 -33.057157 49.544607
RightForeArm -148.038525 -0.000000 33.969240
RightHand -1.068530 0.000000 -2.552397
RightHandThumb1 -24.326973 -0.000000 -32.862282
LeftUpLeg 0.975319 23.568215 5.927893
LeftLeg 8.266147 -0.000000 -0.000000
LeftFoot -21.287139 9.224924 -23.346397
LeftToeBase 14.923323 -0.000000 -0.000000
RightUpLeg -6.428916 0.497175 -0.851977
RightLeg 9.732779 -0.000000 -0.000000
RightFoot -11.836359 3.102878 11.930054
RightToeBase 10.873872 -0.000000 -0.000000
854
root -0.770684 36.830061 4.862323 4.642281 -18.312900 -2.592544
Spine 0.856700 -3.662480 -1.198396
Head -2.617711 4.172033 3.860071
LeftShoulder 4.234088 -3.436658 -0.228657
LeftArm 7.340064 21.189664 -70.438333
LeftForeArm -75.543191 -0.000000 94.284936
LeftHand -3.848388 -0.000000 -23.225237
LeftHandThumb1 -26.253704 0.000000 33.147579
RightShoulder -1.777101 -21.471652 2.911942
RightArm 27.328269 -33.059438 49.550741
RightForeArm -148.160142 -0.000000 33.879432
RightHand -1.073564 -0.000000 -2.618536
RightHandThumb1 -24.326973 -0.000000 -32.862282
LeftUpLeg 0.978101 23.575476 5.926038
LeftLeg 8.262262 -0.000000 -0.000000
LeftFoot -21.286180 9.241840 -23.332068
LeftToeBase 14.887330 -0.000000 -0.000000
RightUpLeg -6.431901 0.498276 -0.851438
RightLeg 9.727789 -0.000000 -0.000000
RightFoot -11.828315 3.116804 11.918037
RightToeBase 10.884672 -0.000000 -0.000000
855
root -0.767920 36.830062 4.862510 4.646236 -18.319824 -2.590152
Spine 0.850888 -3.687096 -1.195486
Head -2.626608 4.198593 3.837757
LeftShoulder 4.222324 -3.408919 -0.237883
LeftArm 7.414902 21.246559 -70.410642
LeftForeArm -75.545105 0.000000 94.323989
LeftHand -3.939273 0.000000 -23.195127
LeftHandThumb1 -26.253704 0.000000 33.147579
RightShoulder -1.786920 -21.468729 2.898514
RightArm 27.281745 -33.033549 49.606398
RightForeArm -148.374270 0.000000 33.772832
RightHand -1.134833 -0.000000 -2.749963
RightHandThumb1 -24.326973 -0.000000 -32.862282
LeftUpLeg 0.977331 23.580518 5.917634
LeftLeg 8.253568 -0.000000 -0.000000
LeftFoot -21.285685 9.239617 -23.337326
LeftToeBase 14.889941 -0.000000 -0.000000
RightUpLeg -6.435876 0.481420 -0.856710
RightLeg 9.722768 -0.000000 -0.000000
RightFoot -11.817861 3.123286 11.913660
RightToeBase 10.867993 -0.000000 -0.000000
